<svg width="19" height="24" viewBox="0 0 19 24" fill="none" xmlns="http://www.w3.org/2000/svg">
<g clip-path="url(#clip0_327_156)">
<path d="M9.20898 21.9531C7.55859 21.9531 6.34766 20.7422 6.2207 19.375H12.207C12.0801 20.7422 10.8691 21.9531 9.20898 21.9531ZM10.4312 1.66989C9.7296 2.49127 9.30664 3.55628 9.30664 4.7168C9.30664 7.30469 11.4258 9.43359 14.0234 9.43359C14.5659 9.43359 15.089 9.33933 15.5745 9.16155C15.6442 9.72013 15.6819 10.3172 15.6934 10.9473C15.7715 12.0703 15.9473 13.457 16.5918 14.1309C17.4316 15 18.4277 15.8789 18.4277 16.8555C18.4277 17.5684 17.8711 18.0371 16.9531 18.0371H1.47461C0.546875 18.0371 0 17.5684 0 16.8555C0 15.8789 0.986328 15 1.83594 14.1309C2.48047 13.457 2.65625 12.0703 2.73438 10.9473C2.80273 7.19727 3.79883 4.61914 6.39648 3.68164C6.75781 2.40234 7.77344 1.39648 9.20898 1.39648C9.6615 1.39648 10.0709 1.49508 10.4312 1.66989Z" fill="#32D16D"/>
<path d="M14.0234 8.09571C15.8691 8.09571 17.4121 6.57228 17.4121 4.71681C17.4121 2.85157 15.8691 1.32812 14.0234 1.32812C12.1582 1.32812 10.6348 2.85157 10.6348 4.71681C10.6348 6.57228 12.1582 8.09571 14.0234 8.09571Z" fill="#F2383A"/>
</g>
<defs>
<clipPath id="clip0_327_156">
<rect width="18.7891" height="23.3496" fill="white"/>
</clipPath>
</defs>
</svg>
