<svg height="5" height="5" viewBox="0 0 18 18" fill="none" xmlns="http://www.w3.org/2000/svg">
<g clip-path="url(#clip0_327_162)">
<path d="M0 7.28028C0 11.2944 3.23655 14.5605 7.21445 14.5605C8.78753 14.5605 10.225 14.0497 11.4093 13.1921L15.8573 17.6897C16.0652 17.8997 16.3365 18 16.6258 18C17.2405 18 17.6654 17.5347 17.6654 16.9234C17.6654 16.6315 17.5569 16.3669 17.3671 16.1754L12.9463 11.6868C13.8774 10.4643 14.4289 8.94069 14.4289 7.28028C14.4289 3.26609 11.1923 0 7.21445 0C3.23655 0 0 3.26609 0 7.28028ZM1.54595 7.28028C1.54595 4.12366 4.08638 1.56006 7.21445 1.56006C10.3425 1.56006 12.8829 4.12366 12.8829 7.28028C12.8829 10.4369 10.3425 13.0005 7.21445 13.0005C4.08638 13.0005 1.54595 10.4369 1.54595 7.28028Z" fill="#32D16D"/>
</g>
<defs>
<clipPath id="clip0_327_162">
<rect width="18" height="18" fill="white"/>
</clipPath>
</defs>
</svg>
